<?xml version="1.0" encoding="UTF-8"?> <svg xmlns="http://www.w3.org/2000/svg" id="_Слой_2" data-name="Слой 2" viewBox="0 0 947.72 259.28"><g id="_Слой_1-2" data-name="Слой 1"><g><path d="M947.72,162.63c-.12-37.46-15.57-65.4-46.02-83.07-16.3-9.45-34.78-13.65-53.41-13.52-18.63-.13-37.11,4.06-53.41,13.52-30.45,17.67-45.89,45.61-46.02,83.07h0c.12,37.47,15.57,65.41,46.02,83.08,15.81,9.17,33.77,13.47,51.98,13.57,.47,0,.95-.02,1.43-.02,.48,0,.96,.02,1.43,.02,18.21-.1,36.17-4.39,51.98-13.57,30.45-17.67,45.9-45.62,46.02-83.08h0Zm-63.7,37.01c-8.81,8.96-21.04,13.71-35.37,13.73-.12,0-.23,0-.35,0-.12,0-.23,0-.35,0-14.33-.02-26.56-4.76-35.37-13.73-8.89-9.06-13.71-22.16-13.66-37-.06-14.84,4.76-27.95,13.66-37.01,8.8-8.96,21.03-13.71,35.37-13.73h.08c.09,0,.17,0,.26,0,.09,0,.17,0,.26,0h.08c14.34,.01,26.57,4.76,35.37,13.73,8.9,9.06,13.72,22.17,13.66,37.01,.06,14.84-4.76,27.94-13.66,37Z"></path><polygon points="248.02 68.11 248.02 114.05 317.94 114.05 317.94 257.59 369.12 257.59 369.12 114.05 440.32 114.05 440.32 68.11 248.02 68.11"></polygon><rect x="179.85" y="67.72" width="51.65" height="189.87"></rect><rect y="67.72" width="51.65" height="189.87"></rect><polygon points="129.53 67.72 51.65 257.59 104.89 257.59 179.8 67.72 129.53 67.72"></polygon><polygon points="647.61 67.72 596.35 192.68 545.09 67.72 456.84 67.72 456.84 257.59 508.49 257.59 508.49 102.36 569.73 257.59 622.97 257.59 684.21 102.36 684.21 257.59 735.86 257.59 735.86 67.72 647.61 67.72"></polygon><path d="M205.65,0c-14.28,0-25.85,11.33-25.85,25.29s11.57,25.29,25.85,25.29,25.85-11.32,25.85-25.29S219.92,0,205.65,0"></path></g></g></svg> 